# xmcd
#
# Track frame offsets:
#	150
#	15510
#	26643
#	39198
#	50903
#	62788
#	69283
#	84853
#	96623
#	108148
#	120073
#	132718
#	143990
#	153775
#	171863
#	183210
#	195883
#	206668
#	217900
#	231538
#	258713
#	268808
#	279798
#	291923
#	304535
#
# Disc length: 4222
#
# Revision: 3
# Processed by: cddbd v1.5.1PL0 Copyright (c) Steve Scherf et al.
# Submitted via: xmcd 2.2 PL1
# Normalized: r2:DSETVAR1
#
DISCID=60107c19,6a107b19
DTITLE=Various Artist - Blues 'N' Soul Greats 2
DYEAR=1900
DGENRE=
TTITLE0=Howlin' Wolf - Commit A Crime
TTITLE1=John Lee Hooker - Boom Boom
TTITLE2=Billie Holiday - God Bless The Child
TTITLE3=Muddy Waters - You Gonna Miss Me
TTITLE4=Gatemouth Moore - Did You Ever Love A Woman
TTITLE5=Lightnin' Hookins - Just Pickin'
TTITLE6=B.B. King - Walkin' and Cryin'
TTITLE7=Leadbelly - Boll Weevil Blues
TTITLE8=Howlin' Wolf - Somebody Walkin' In My House
TTITLE9=John Lee Hooker - Frisco Blues
TTITLE10=Billie Holiday - Don't Explain
TTITLE11=Elmore James - Look On Yonder Wall
TTITLE12=Muddy Waters - Mean Red Spider
TTITLE13=Lightnin' Hopkins - Shake That Thing
TTITLE14=Howlin' Wolf - My Country Sugar Mama
TTITLE15=B.B. King - Please Love Me
TTITLE16=John Lee Hooker - No Shoes
TTITLE17=Billie Holiday - I Love You, Porgy
TTITLE18=Leadbelly - The Gallis Pole
TTITLE19=Gatemouth Moore - Beale Street Ain't Beale Street No More
TTITLE20=Muddy Waters - Diamonds At Your Feet
TTITLE21=Roy Milton - Information Blues
TTITLE22=John Lee Hooker - I'm In The Mood
TTITLE23=Howlin' Wolf - My Mind Is Ramblin
TTITLE24=Jimmy Reed - Little Rain
EXTD=
EXTT0=
EXTT1=
EXTT2=
EXTT3=
EXTT4=
EXTT5=
EXTT6=
EXTT7=
EXTT8=
EXTT9=
EXTT10=
EXTT11=
EXTT12=
EXTT13=
EXTT14=
EXTT15=
EXTT16=
EXTT17=
EXTT18=
EXTT19=
EXTT20=
EXTT21=
EXTT22=
EXTT23=
EXTT24=
PLAYORDER=
